<?xml version="1.0" encoding="UTF-8" standalone="no"?>
<!DOCTYPE svg PUBLIC "-//W3C//DTD SVG 1.1//EN"
 "http://www.w3.org/Graphics/SVG/1.1/DTD/svg11.dtd">
<!-- Generated by graphviz version 14.1.0 (20251206.1807)
 -->
<!-- Pages: 1 -->
<svg width="341pt" height="100pt"
 viewBox="0.00 0.00 341.00 100.00" xmlns="http://www.w3.org/2000/svg" xmlns:xlink="http://www.w3.org/1999/xlink">
<g id="graph0" class="graph" transform="scale(1 1) rotate(0) translate(4 96)">
<polygon fill="white" stroke="none" points="-4,4 -4,-96 336.5,-96 336.5,4 -4,4"/>
<!-- 4334677440 -->
<g id="node1" class="node">
<title>4334677440</title>
<polygon fill="none" stroke="black" points="228.5,-27.5 228.5,-63.5 332.5,-63.5 332.5,-27.5 228.5,-27.5"/>
<text xml:space="preserve" text-anchor="middle" x="240.62" y="-40.7" font-family="Times,serif" font-size="14.00">+</text>
<polyline fill="none" stroke="black" points="252.75,-28 252.75,-63.5"/>
<text xml:space="preserve" text-anchor="middle" x="292.62" y="-40.7" font-family="Times,serif" font-size="14.00">data 5.0000</text>
</g>
<!-- 4334677440+ -->
<g id="node2" class="node">
<title>4334677440+</title>
<ellipse fill="none" stroke="black" cx="165.5" cy="-45.5" rx="27" ry="18"/>
<text xml:space="preserve" text-anchor="middle" x="165.5" y="-40.45" font-family="Times,serif" font-size="14.00">+</text>
</g>
<!-- 4334677440+&#45;&gt;4334677440 -->
<g id="edge1" class="edge">
<title>4334677440+&#45;&gt;4334677440</title>
<path fill="none" stroke="black" d="M192.99,-45.5C200.26,-45.5 208.46,-45.5 216.84,-45.5"/>
<polygon fill="black" stroke="black" points="216.8,-49 226.8,-45.5 216.8,-42 216.8,-49"/>
</g>
<!-- 4334677968 -->
<g id="node3" class="node">
<title>4334677968</title>
<polygon fill="none" stroke="black" points="0.38,-55.5 0.38,-91.5 102.12,-91.5 102.12,-55.5 0.38,-55.5"/>
<text xml:space="preserve" text-anchor="middle" x="11.38" y="-68.7" font-family="Times,serif" font-size="14.00">a</text>
<polyline fill="none" stroke="black" points="22.38,-56 22.38,-91.5"/>
<text xml:space="preserve" text-anchor="middle" x="62.25" y="-68.7" font-family="Times,serif" font-size="14.00">data 2.0000</text>
</g>
<!-- 4334677968&#45;&gt;4334677440+ -->
<g id="edge3" class="edge">
<title>4334677968&#45;&gt;4334677440+</title>
<path fill="none" stroke="black" d="M102.47,-60.97C111.37,-58.75 120.48,-56.48 128.88,-54.38"/>
<polygon fill="black" stroke="black" points="129.49,-57.84 138.34,-52.02 127.79,-51.05 129.49,-57.84"/>
</g>
<!-- 4334677872 -->
<g id="node4" class="node">
<title>4334677872</title>
<polygon fill="none" stroke="black" points="0,-0.5 0,-36.5 102.5,-36.5 102.5,-0.5 0,-0.5"/>
<text xml:space="preserve" text-anchor="middle" x="11.38" y="-13.7" font-family="Times,serif" font-size="14.00">b</text>
<polyline fill="none" stroke="black" points="22.75,-1 22.75,-36.5"/>
<text xml:space="preserve" text-anchor="middle" x="62.62" y="-13.7" font-family="Times,serif" font-size="14.00">data 3.0000</text>
</g>
<!-- 4334677872&#45;&gt;4334677440+ -->
<g id="edge2" class="edge">
<title>4334677872&#45;&gt;4334677440+</title>
<path fill="none" stroke="black" d="M102.79,-30.66C111.49,-32.75 120.38,-34.89 128.59,-36.86"/>
<polygon fill="black" stroke="black" points="127.66,-40.24 138.2,-39.17 129.3,-33.43 127.66,-40.24"/>
</g>
</g>
</svg>
