<?xml version="1.0" encoding="UTF-8" standalone="no"?>
<!DOCTYPE svg PUBLIC "-//W3C//DTD SVG 1.1//EN"
 "http://www.w3.org/Graphics/SVG/1.1/DTD/svg11.dtd">
<!-- Generated by graphviz version 14.1.0 (20251206.1807)
 -->
<!-- Pages: 1 -->
<svg width="2533pt" height="265pt"
 viewBox="0.00 0.00 2533.00 265.00" xmlns="http://www.w3.org/2000/svg" xmlns:xlink="http://www.w3.org/1999/xlink">
<g id="graph0" class="graph" transform="scale(1 1) rotate(0) translate(4 261)">
<polygon fill="white" stroke="none" points="-4,4 -4,-261 2529.25,-261 2529.25,4 -4,4"/>
<!-- 4392546368 -->
<g id="node1" class="node">
<title>4392546368</title>
<polygon fill="none" stroke="black" points="1120.5,-55.5 1120.5,-91.5 1350.75,-91.5 1350.75,-55.5 1120.5,-55.5"/>
<text xml:space="preserve" text-anchor="middle" x="1155.12" y="-68.7" font-family="Times,serif" font-size="14.00">(w2 * x3)</text>
<polyline fill="none" stroke="black" points="1189.75,-56 1189.75,-91.5"/>
<text xml:space="preserve" text-anchor="middle" x="1229.62" y="-68.7" font-family="Times,serif" font-size="14.00">data 1.1646</text>
<polyline fill="none" stroke="black" points="1269.5,-56 1269.5,-91.5"/>
<text xml:space="preserve" text-anchor="middle" x="1310.12" y="-68.7" font-family="Times,serif" font-size="14.00">grad 0.0000</text>
</g>
<!-- 4392546560+ -->
<g id="node8" class="node">
<title>4392546560+</title>
<ellipse fill="none" stroke="black" cx="1470.75" cy="-100.5" rx="27" ry="18"/>
<text xml:space="preserve" text-anchor="middle" x="1470.75" y="-95.45" font-family="Times,serif" font-size="14.00">+</text>
</g>
<!-- 4392546368&#45;&gt;4392546560+ -->
<g id="edge11" class="edge">
<title>4392546368&#45;&gt;4392546560+</title>
<path fill="none" stroke="black" d="M1351.14,-86.76C1380.62,-90.18 1410.27,-93.61 1432.55,-96.19"/>
<polygon fill="black" stroke="black" points="1431.97,-99.65 1442.3,-97.32 1432.77,-92.69 1431.97,-99.65"/>
</g>
<!-- 4392546368* -->
<g id="node2" class="node">
<title>4392546368*</title>
<ellipse fill="none" stroke="black" cx="1000.5" cy="-73.5" rx="27" ry="18"/>
<text xml:space="preserve" text-anchor="middle" x="1000.5" y="-68.45" font-family="Times,serif" font-size="14.00">*</text>
</g>
<!-- 4392546368*&#45;&gt;4392546368 -->
<g id="edge1" class="edge">
<title>4392546368*&#45;&gt;4392546368</title>
<path fill="none" stroke="black" d="M1027.79,-73.5C1048.15,-73.5 1077.98,-73.5 1108.69,-73.5"/>
<polygon fill="black" stroke="black" points="1108.51,-77 1118.51,-73.5 1108.51,-70 1108.51,-77"/>
</g>
<!-- 4390358656 -->
<g id="node3" class="node">
<title>4390358656</title>
<polygon fill="none" stroke="black" points="689.25,-165.5 689.25,-201.5 924,-201.5 924,-165.5 689.25,-165.5"/>
<text xml:space="preserve" text-anchor="middle" x="723.88" y="-178.7" font-family="Times,serif" font-size="14.00">(w1 * x2)</text>
<polyline fill="none" stroke="black" points="758.5,-166 758.5,-201.5"/>
<text xml:space="preserve" text-anchor="middle" x="800.62" y="-178.7" font-family="Times,serif" font-size="14.00">data &#45;1.3319</text>
<polyline fill="none" stroke="black" points="842.75,-166 842.75,-201.5"/>
<text xml:space="preserve" text-anchor="middle" x="883.38" y="-178.7" font-family="Times,serif" font-size="14.00">grad 0.0000</text>
</g>
<!-- 4390358848+ -->
<g id="node14" class="node">
<title>4390358848+</title>
<ellipse fill="none" stroke="black" cx="1000.5" cy="-128.5" rx="27" ry="18"/>
<text xml:space="preserve" text-anchor="middle" x="1000.5" y="-123.45" font-family="Times,serif" font-size="14.00">+</text>
</g>
<!-- 4390358656&#45;&gt;4390358848+ -->
<g id="edge18" class="edge">
<title>4390358656&#45;&gt;4390358848+</title>
<path fill="none" stroke="black" d="M907.48,-165.07C917.7,-162.49 927.86,-159.64 937.5,-156.5 947.7,-153.18 958.47,-148.69 968.11,-144.28"/>
<polygon fill="black" stroke="black" points="969.52,-147.49 977.07,-140.05 966.53,-141.16 969.52,-147.49"/>
</g>
<!-- 4390358656* -->
<g id="node4" class="node">
<title>4390358656*</title>
<ellipse fill="none" stroke="black" cx="612.75" cy="-183.5" rx="27" ry="18"/>
<text xml:space="preserve" text-anchor="middle" x="612.75" y="-178.45" font-family="Times,serif" font-size="14.00">*</text>
</g>
<!-- 4390358656*&#45;&gt;4390358656 -->
<g id="edge2" class="edge">
<title>4390358656*&#45;&gt;4390358656</title>
<path fill="none" stroke="black" d="M640.03,-183.5C650.56,-183.5 663.51,-183.5 677.5,-183.5"/>
<polygon fill="black" stroke="black" points="677.4,-187 687.4,-183.5 677.4,-180 677.4,-187"/>
</g>
<!-- 4376986768 -->
<g id="node5" class="node">
<title>4376986768</title>
<polygon fill="none" stroke="black" points="0,-83.5 0,-119.5 193.5,-119.5 193.5,-83.5 0,-83.5"/>
<text xml:space="preserve" text-anchor="middle" x="16.25" y="-96.7" font-family="Times,serif" font-size="14.00">w0</text>
<polyline fill="none" stroke="black" points="32.5,-84 32.5,-119.5"/>
<text xml:space="preserve" text-anchor="middle" x="72.38" y="-96.7" font-family="Times,serif" font-size="14.00">data 0.8901</text>
<polyline fill="none" stroke="black" points="112.25,-84 112.25,-119.5"/>
<text xml:space="preserve" text-anchor="middle" x="152.88" y="-96.7" font-family="Times,serif" font-size="14.00">grad 0.0000</text>
</g>
<!-- 4390358272* -->
<g id="node10" class="node">
<title>4390358272*</title>
<ellipse fill="none" stroke="black" cx="256.5" cy="-73.5" rx="27" ry="18"/>
<text xml:space="preserve" text-anchor="middle" x="256.5" y="-68.45" font-family="Times,serif" font-size="14.00">*</text>
</g>
<!-- 4376986768&#45;&gt;4390358272* -->
<g id="edge9" class="edge">
<title>4376986768&#45;&gt;4390358272*</title>
<path fill="none" stroke="black" d="M193.61,-84.49C202.52,-82.9 211.13,-81.38 218.94,-79.99"/>
<polygon fill="black" stroke="black" points="219.42,-83.46 228.65,-78.27 218.2,-76.57 219.42,-83.46"/>
</g>
<!-- 4376938144 -->
<g id="node6" class="node">
<title>4376938144</title>
<polygon fill="none" stroke="black" points="342.75,-110.5 342.75,-146.5 526.5,-146.5 526.5,-110.5 342.75,-110.5"/>
<text xml:space="preserve" text-anchor="middle" x="354.12" y="-123.7" font-family="Times,serif" font-size="14.00">b</text>
<polyline fill="none" stroke="black" points="365.5,-111 365.5,-146.5"/>
<text xml:space="preserve" text-anchor="middle" x="405.38" y="-123.7" font-family="Times,serif" font-size="14.00">data 0.2316</text>
<polyline fill="none" stroke="black" points="445.25,-111 445.25,-146.5"/>
<text xml:space="preserve" text-anchor="middle" x="485.88" y="-123.7" font-family="Times,serif" font-size="14.00">grad 0.0000</text>
</g>
<!-- 4390358464+ -->
<g id="node20" class="node">
<title>4390358464+</title>
<ellipse fill="none" stroke="black" cx="612.75" cy="-128.5" rx="27" ry="18"/>
<text xml:space="preserve" text-anchor="middle" x="612.75" y="-123.45" font-family="Times,serif" font-size="14.00">+</text>
</g>
<!-- 4376938144&#45;&gt;4390358464+ -->
<g id="edge19" class="edge">
<title>4376938144&#45;&gt;4390358464+</title>
<path fill="none" stroke="black" d="M526.78,-128.5C543.57,-128.5 560.21,-128.5 574.25,-128.5"/>
<polygon fill="black" stroke="black" points="573.87,-132 583.87,-128.5 573.87,-125 573.87,-132"/>
</g>
<!-- 4392546560 -->
<g id="node7" class="node">
<title>4392546560</title>
<polygon fill="none" stroke="black" points="1533.75,-82.5 1533.75,-118.5 1951.5,-118.5 1951.5,-82.5 1533.75,-82.5"/>
<text xml:space="preserve" text-anchor="middle" x="1662.12" y="-95.7" font-family="Times,serif" font-size="14.00">(((b + (w0 * x1)) + (w1 * x2)) + (w2 * x3))</text>
<polyline fill="none" stroke="black" points="1790.5,-83 1790.5,-118.5"/>
<text xml:space="preserve" text-anchor="middle" x="1830.38" y="-95.7" font-family="Times,serif" font-size="14.00">data 0.9543</text>
<polyline fill="none" stroke="black" points="1870.25,-83 1870.25,-118.5"/>
<text xml:space="preserve" text-anchor="middle" x="1910.88" y="-95.7" font-family="Times,serif" font-size="14.00">grad 0.0000</text>
</g>
<!-- 4392546608relu -->
<g id="node12" class="node">
<title>4392546608relu</title>
<ellipse fill="none" stroke="black" cx="2014.5" cy="-100.5" rx="27" ry="18"/>
<text xml:space="preserve" text-anchor="middle" x="2014.5" y="-95.45" font-family="Times,serif" font-size="14.00">relu</text>
</g>
<!-- 4392546560&#45;&gt;4392546608relu -->
<g id="edge16" class="edge">
<title>4392546560&#45;&gt;4392546608relu</title>
<path fill="none" stroke="black" d="M1951.92,-100.5C1960.5,-100.5 1968.51,-100.5 1975.73,-100.5"/>
<polygon fill="black" stroke="black" points="1975.59,-104 1985.59,-100.5 1975.59,-97 1975.59,-104"/>
</g>
<!-- 4392546560+&#45;&gt;4392546560 -->
<g id="edge3" class="edge">
<title>4392546560+&#45;&gt;4392546560</title>
<path fill="none" stroke="black" d="M1498.12,-100.5C1505.1,-100.5 1513.21,-100.5 1522.15,-100.5"/>
<polygon fill="black" stroke="black" points="1521.94,-104 1531.94,-100.5 1521.94,-97 1521.94,-104"/>
</g>
<!-- 4390358272 -->
<g id="node9" class="node">
<title>4390358272</title>
<polygon fill="none" stroke="black" points="319.5,-55.5 319.5,-91.5 549.75,-91.5 549.75,-55.5 319.5,-55.5"/>
<text xml:space="preserve" text-anchor="middle" x="354.12" y="-68.7" font-family="Times,serif" font-size="14.00">(w0 * x1)</text>
<polyline fill="none" stroke="black" points="388.75,-56 388.75,-91.5"/>
<text xml:space="preserve" text-anchor="middle" x="428.62" y="-68.7" font-family="Times,serif" font-size="14.00">data 0.8901</text>
<polyline fill="none" stroke="black" points="468.5,-56 468.5,-91.5"/>
<text xml:space="preserve" text-anchor="middle" x="509.12" y="-68.7" font-family="Times,serif" font-size="14.00">grad 0.0000</text>
</g>
<!-- 4390358272&#45;&gt;4390358464+ -->
<g id="edge8" class="edge">
<title>4390358272&#45;&gt;4390358464+</title>
<path fill="none" stroke="black" d="M518.08,-91.95C528.82,-94.87 539.6,-98.07 549.75,-101.5 559.77,-104.88 570.42,-109.23 580.01,-113.44"/>
<polygon fill="black" stroke="black" points="578.36,-116.54 588.92,-117.46 581.24,-110.16 578.36,-116.54"/>
</g>
<!-- 4390358272*&#45;&gt;4390358272 -->
<g id="edge4" class="edge">
<title>4390358272*&#45;&gt;4390358272</title>
<path fill="none" stroke="black" d="M283.87,-73.5C290.95,-73.5 299.11,-73.5 307.88,-73.5"/>
<polygon fill="black" stroke="black" points="307.77,-77 317.77,-73.5 307.77,-70 307.77,-77"/>
</g>
<!-- 4392546608 -->
<g id="node11" class="node">
<title>4392546608</title>
<polygon fill="none" stroke="black" points="2077.5,-82.5 2077.5,-118.5 2525.25,-118.5 2525.25,-82.5 2077.5,-82.5"/>
<text xml:space="preserve" text-anchor="middle" x="2220.88" y="-95.7" font-family="Times,serif" font-size="14.00">relu((((b + (w0 * x1)) + (w1 * x2)) + (w2 * x3)))</text>
<polyline fill="none" stroke="black" points="2364.25,-83 2364.25,-118.5"/>
<text xml:space="preserve" text-anchor="middle" x="2404.12" y="-95.7" font-family="Times,serif" font-size="14.00">data 0.9543</text>
<polyline fill="none" stroke="black" points="2444,-83 2444,-118.5"/>
<text xml:space="preserve" text-anchor="middle" x="2484.62" y="-95.7" font-family="Times,serif" font-size="14.00">grad 0.0000</text>
</g>
<!-- 4392546608relu&#45;&gt;4392546608 -->
<g id="edge5" class="edge">
<title>4392546608relu&#45;&gt;4392546608</title>
<path fill="none" stroke="black" d="M2041.79,-100.5C2048.74,-100.5 2056.84,-100.5 2065.78,-100.5"/>
<polygon fill="black" stroke="black" points="2065.58,-104 2075.58,-100.5 2065.58,-97 2065.58,-104"/>
</g>
<!-- 4390358848 -->
<g id="node13" class="node">
<title>4390358848</title>
<polygon fill="none" stroke="black" points="1063.5,-110.5 1063.5,-146.5 1407.75,-146.5 1407.75,-110.5 1063.5,-110.5"/>
<text xml:space="preserve" text-anchor="middle" x="1152.88" y="-123.7" font-family="Times,serif" font-size="14.00">((b + (w0 * x1)) + (w1 * x2))</text>
<polyline fill="none" stroke="black" points="1242.25,-111 1242.25,-146.5"/>
<text xml:space="preserve" text-anchor="middle" x="1284.38" y="-123.7" font-family="Times,serif" font-size="14.00">data &#45;0.2103</text>
<polyline fill="none" stroke="black" points="1326.5,-111 1326.5,-146.5"/>
<text xml:space="preserve" text-anchor="middle" x="1367.12" y="-123.7" font-family="Times,serif" font-size="14.00">grad 0.0000</text>
</g>
<!-- 4390358848&#45;&gt;4392546560+ -->
<g id="edge13" class="edge">
<title>4390358848&#45;&gt;4392546560+</title>
<path fill="none" stroke="black" d="M1390.5,-110.02C1405.79,-108.18 1420.13,-106.46 1432.29,-105"/>
<polygon fill="black" stroke="black" points="1432.67,-108.48 1442.18,-103.81 1431.83,-101.53 1432.67,-108.48"/>
</g>
<!-- 4390358848+&#45;&gt;4390358848 -->
<g id="edge6" class="edge">
<title>4390358848+&#45;&gt;4390358848</title>
<path fill="none" stroke="black" d="M1027.79,-128.5C1034.82,-128.5 1042.97,-128.5 1051.9,-128.5"/>
<polygon fill="black" stroke="black" points="1051.64,-132 1061.64,-128.5 1051.64,-125 1051.64,-132"/>
</g>
<!-- 4376938336 -->
<g id="node15" class="node">
<title>4376938336</title>
<polygon fill="none" stroke="black" points="709.88,-55.5 709.88,-91.5 903.38,-91.5 903.38,-55.5 709.88,-55.5"/>
<text xml:space="preserve" text-anchor="middle" x="726.12" y="-68.7" font-family="Times,serif" font-size="14.00">w2</text>
<polyline fill="none" stroke="black" points="742.38,-56 742.38,-91.5"/>
<text xml:space="preserve" text-anchor="middle" x="782.25" y="-68.7" font-family="Times,serif" font-size="14.00">data 0.3882</text>
<polyline fill="none" stroke="black" points="822.12,-56 822.12,-91.5"/>
<text xml:space="preserve" text-anchor="middle" x="862.75" y="-68.7" font-family="Times,serif" font-size="14.00">grad 0.0000</text>
</g>
<!-- 4376938336&#45;&gt;4392546368* -->
<g id="edge20" class="edge">
<title>4376938336&#45;&gt;4392546368*</title>
<path fill="none" stroke="black" d="M903.84,-73.5C924.46,-73.5 945.06,-73.5 961.83,-73.5"/>
<polygon fill="black" stroke="black" points="961.8,-77 971.8,-73.5 961.8,-70 961.8,-77"/>
</g>
<!-- 4390357888 -->
<g id="node16" class="node">
<title>4390357888</title>
<polygon fill="none" stroke="black" points="1.5,-28.5 1.5,-64.5 192,-64.5 192,-28.5 1.5,-28.5"/>
<text xml:space="preserve" text-anchor="middle" x="16.25" y="-41.7" font-family="Times,serif" font-size="14.00">x1</text>
<polyline fill="none" stroke="black" points="31,-29 31,-64.5"/>
<text xml:space="preserve" text-anchor="middle" x="70.88" y="-41.7" font-family="Times,serif" font-size="14.00">data 1.0000</text>
<polyline fill="none" stroke="black" points="110.75,-29 110.75,-64.5"/>
<text xml:space="preserve" text-anchor="middle" x="151.38" y="-41.7" font-family="Times,serif" font-size="14.00">grad 0.0000</text>
</g>
<!-- 4390357888&#45;&gt;4390358272* -->
<g id="edge14" class="edge">
<title>4390357888&#45;&gt;4390358272*</title>
<path fill="none" stroke="black" d="M192.25,-62.67C201.5,-64.26 210.46,-65.79 218.59,-67.18"/>
<polygon fill="black" stroke="black" points="217.88,-70.61 228.33,-68.85 219.06,-63.71 217.88,-70.61"/>
</g>
<!-- 4376938384 -->
<g id="node17" class="node">
<title>4376938384</title>
<polygon fill="none" stroke="black" points="335.62,-220.5 335.62,-256.5 533.62,-256.5 533.62,-220.5 335.62,-220.5"/>
<text xml:space="preserve" text-anchor="middle" x="351.88" y="-233.7" font-family="Times,serif" font-size="14.00">w1</text>
<polyline fill="none" stroke="black" points="368.12,-221 368.12,-256.5"/>
<text xml:space="preserve" text-anchor="middle" x="410.25" y="-233.7" font-family="Times,serif" font-size="14.00">data &#45;0.6660</text>
<polyline fill="none" stroke="black" points="452.38,-221 452.38,-256.5"/>
<text xml:space="preserve" text-anchor="middle" x="493" y="-233.7" font-family="Times,serif" font-size="14.00">grad 0.0000</text>
</g>
<!-- 4376938384&#45;&gt;4390358656* -->
<g id="edge10" class="edge">
<title>4376938384&#45;&gt;4390358656*</title>
<path fill="none" stroke="black" d="M521.51,-220.06C531.11,-217.45 540.69,-214.59 549.75,-211.5 559.9,-208.04 570.66,-203.51 580.3,-199.11"/>
<polygon fill="black" stroke="black" points="581.71,-202.32 589.27,-194.9 578.73,-195.98 581.71,-202.32"/>
</g>
<!-- 4390357936 -->
<g id="node18" class="node">
<title>4390357936</title>
<polygon fill="none" stroke="black" points="339.38,-165.5 339.38,-201.5 529.88,-201.5 529.88,-165.5 339.38,-165.5"/>
<text xml:space="preserve" text-anchor="middle" x="354.12" y="-178.7" font-family="Times,serif" font-size="14.00">x2</text>
<polyline fill="none" stroke="black" points="368.88,-166 368.88,-201.5"/>
<text xml:space="preserve" text-anchor="middle" x="408.75" y="-178.7" font-family="Times,serif" font-size="14.00">data 2.0000</text>
<polyline fill="none" stroke="black" points="448.62,-166 448.62,-201.5"/>
<text xml:space="preserve" text-anchor="middle" x="489.25" y="-178.7" font-family="Times,serif" font-size="14.00">grad 0.0000</text>
</g>
<!-- 4390357936&#45;&gt;4390358656* -->
<g id="edge15" class="edge">
<title>4390357936&#45;&gt;4390358656*</title>
<path fill="none" stroke="black" d="M530.13,-183.5C545.75,-183.5 561.1,-183.5 574.2,-183.5"/>
<polygon fill="black" stroke="black" points="574.02,-187 584.02,-183.5 574.02,-180 574.02,-187"/>
</g>
<!-- 4390358464 -->
<g id="node19" class="node">
<title>4390358464</title>
<polygon fill="none" stroke="black" points="675.75,-110.5 675.75,-146.5 937.5,-146.5 937.5,-110.5 675.75,-110.5"/>
<text xml:space="preserve" text-anchor="middle" x="726.12" y="-123.7" font-family="Times,serif" font-size="14.00">(b + (w0 * x1))</text>
<polyline fill="none" stroke="black" points="776.5,-111 776.5,-146.5"/>
<text xml:space="preserve" text-anchor="middle" x="816.38" y="-123.7" font-family="Times,serif" font-size="14.00">data 1.1217</text>
<polyline fill="none" stroke="black" points="856.25,-111 856.25,-146.5"/>
<text xml:space="preserve" text-anchor="middle" x="896.88" y="-123.7" font-family="Times,serif" font-size="14.00">grad 0.0000</text>
</g>
<!-- 4390358464&#45;&gt;4390358848+ -->
<g id="edge17" class="edge">
<title>4390358464&#45;&gt;4390358848+</title>
<path fill="none" stroke="black" d="M938,-128.5C946.36,-128.5 954.32,-128.5 961.57,-128.5"/>
<polygon fill="black" stroke="black" points="961.54,-132 971.54,-128.5 961.54,-125 961.54,-132"/>
</g>
<!-- 4390358464+&#45;&gt;4390358464 -->
<g id="edge7" class="edge">
<title>4390358464+&#45;&gt;4390358464</title>
<path fill="none" stroke="black" d="M640.03,-128.5C647.18,-128.5 655.45,-128.5 664.4,-128.5"/>
<polygon fill="black" stroke="black" points="664.12,-132 674.12,-128.5 664.12,-125 664.12,-132"/>
</g>
<!-- 4390357984 -->
<g id="node21" class="node">
<title>4390357984</title>
<polygon fill="none" stroke="black" points="711.38,-0.5 711.38,-36.5 901.88,-36.5 901.88,-0.5 711.38,-0.5"/>
<text xml:space="preserve" text-anchor="middle" x="726.12" y="-13.7" font-family="Times,serif" font-size="14.00">x3</text>
<polyline fill="none" stroke="black" points="740.88,-1 740.88,-36.5"/>
<text xml:space="preserve" text-anchor="middle" x="780.75" y="-13.7" font-family="Times,serif" font-size="14.00">data 3.0000</text>
<polyline fill="none" stroke="black" points="820.62,-1 820.62,-36.5"/>
<text xml:space="preserve" text-anchor="middle" x="861.25" y="-13.7" font-family="Times,serif" font-size="14.00">grad 0.0000</text>
</g>
<!-- 4390357984&#45;&gt;4392546368* -->
<g id="edge12" class="edge">
<title>4390357984&#45;&gt;4392546368*</title>
<path fill="none" stroke="black" d="M902.2,-36.59C914.18,-39.55 926.19,-42.86 937.5,-46.5 947.57,-49.74 958.23,-54.05 967.82,-58.26"/>
<polygon fill="black" stroke="black" points="966.17,-61.36 976.72,-62.3 969.06,-54.98 966.17,-61.36"/>
</g>
</g>
</svg>
